<?xml version="1.0" encoding="utf-8"?>
<!-- Generator: Adobe Illustrator 22.0.1, SVG Export Plug-In . SVG Version: 6.00 Build 0)  -->
<svg version="1.1" id="Calque_1" xmlns="http://www.w3.org/2000/svg" xmlns:xlink="http://www.w3.org/1999/xlink" x="0px" y="0px"
	 viewBox="0 0 283.5 283.5" style="enable-background:new 0 0 283.5 283.5;" xml:space="preserve">
<path d="M149.1,34.6c4.2,1,8.4,1.8,12.5,3c24.9,7.1,40.3,23.9,49.5,47.6c7.3,18.8,5.6,36.9-3.8,53.9c-9.9,17.8-21.2,34.7-31.7,52.1
	c-8.4,14-16.6,28.1-24.8,42.1c-2.9,5-5.8,10-9,15.5c-1-1.5-1.8-2.4-2.4-3.5c-19.3-31.6-38.7-63.2-57.8-95
	c-5.9-9.8-11.2-20-12.8-31.5c-4-27.8,4.6-51.2,26.7-68.9c10.1-8.1,22.2-13.1,35.1-14.5c0.7-0.2,1.3-0.4,1.9-0.7L149.1,34.6z
	 M115.5,106.6c-1.8,15.1,12.1,27.3,25.4,27.1c16.4-0.3,29.1-13.3,27.9-29.7c-1.1-14.3-14-25.7-28.3-24.9
	C127.3,79.9,114.4,88.1,115.5,106.6L115.5,106.6z"/>
</svg>
