<?xml version="1.0" encoding="utf-8"?>
<!-- Generator: Adobe Illustrator 22.0.1, SVG Export Plug-In . SVG Version: 6.00 Build 0)  -->
<svg version="1.1" id="Calque_1" xmlns="http://www.w3.org/2000/svg" xmlns:xlink="http://www.w3.org/1999/xlink" x="0px" y="0px"
	 viewBox="0 0 200 200" style="enable-background:new 0 0 200 200;" xml:space="preserve">
<path d="M114.9,146.6c0,13.6,0,27.3,0,40.9c0,3.4-1,4.7-4.6,4.6c-9.4-0.2-18.8,0-28.2,0c-5.4,0-5.4,0-5.4-5.3v-80.3
	c0-5.3,0-5.2-5.4-4.7c-3.4,0.3-6.9,0.1-10.3,0c-1.9,0-2.7-0.9-2.7-3c0.1-8.5,0.1-17,0-25.4c0-2.3,1.1-3.1,3.1-3
	c3.8,0,7.6-0.2,11.4,0.2c3.3,0.3,4.4-1,4.2-3.8c-0.5-7.6-0.4-15.2,0.3-22.7c0.9-16.4,13.4-32.2,33.9-31.8c9.1,0.2,18.3,0,27.4-0.3
	c2.9,0,4,0.7,3.8,3.8c-0.2,7.8-0.2,15.6,0,23.4c0,2.9-1,3.5-3.7,3.5c-5.7,0-11.3-0.7-16.9,0.6c-3.9,0.7-6.8,3.8-7.3,7.6
	c-1.1,5.5-0.5,11.1-0.7,16.6c0,2.4,1.2,2.8,3.3,2.8c7,0,14,0.1,21-0.1c2.8,0,3.8,0.6,3.6,3.4c-0.9,8.6-1.7,17.2-2.5,25.9
	c-0.2,2.4-1.9,2.5-3.8,2.5c-6,0-11.9,0.1-17.9,0c-2.5,0-3.4,0.8-3,3.2c0,0.1,0,0.3,0,0.4L114.9,146.6z"/>
</svg>
