<?xml version="1.0" encoding="utf-8"?>
<!-- Generator: Adobe Illustrator 22.0.1, SVG Export Plug-In . SVG Version: 6.00 Build 0)  -->
<svg version="1.1" id="Calque_1" xmlns="http://www.w3.org/2000/svg" xmlns:xlink="http://www.w3.org/1999/xlink" x="0px" y="0px"
	 viewBox="0 0 200 200" style="enable-background:new 0 0 200 200;" xml:space="preserve">
<path d="M187,83.2c0-9.4,0.1-18.9-1.6-28.2C182,36.8,172,24.3,154.1,18.4c-8.4-2.8-17.2-3-25.8-3.1c-19-0.3-38-0.4-57,0.1
	c-6.7,0-13.3,0.7-19.8,2.1c-12.8,2.8-23.8,11.2-29.8,22.8c-4,8.1-6.1,17.1-6,26.2c-0.7,24.5-1,49.1,0.3,73.6
	c0.3,9.8,3.5,19.2,9.1,27.2c9.2,12.5,22.1,17.8,37.1,18.9c13.6,1,27.2,0.7,40.8,0.7c5.3,0,10.5,0,15.8,0c9.6-0.2,19.1,0,28.4-1.6
	c18.3-3.4,30.8-13.6,36.6-31.5c2.7-8.5,2.9-17.2,3.1-26C187,112.9,187,98.1,187,83.2z M170.7,139.4c-0.7,9.4-3.6,17.8-11.2,24
	c-4.9,3.8-10.8,6.2-17,6.8c-6.7,0.8-13.5,1.1-20.3,1c-14.1,0.1-28.1,0.2-42.2,0c-7.5,0.2-15-0.3-22.5-1.4
	c-14.5-2.5-24-12.7-25.7-27.4c-0.7-6.8-1.1-13.6-1.1-20.5c-0.1-14-0.2-28.1,0-42.2c-0.2-7.5,0.3-15.1,1.4-22.5
	c2.8-14.7,12.6-23.8,27.5-25.6c6.8-0.7,13.7-1,20.5-1c13.9-0.1,27.7-0.1,41.6,0c7.7-0.2,15.3,0.3,22.9,1.4
	c14.7,2.7,23.9,12.6,25.7,27.4c0.7,6.8,1,13.6,1,20.4c0.1,7.1,0,14.1,0,21.2C171.3,113.8,171.7,126.6,170.7,139.4L170.7,139.4z"/>
<path d="M146.8,65.5c-5.7-0.1-10.3-4.7-10.2-10.5c0.1-5.7,4.7-10.3,10.5-10.2c5.7,0.1,10.2,4.7,10.2,10.4
	c0.1,5.6-4.5,10.3-10.1,10.3C147.1,65.5,147,65.5,146.8,65.5z"/>
<path d="M101.3,56.9C76.9,56.7,57.1,76.4,57,100.8s19.6,44.3,43.9,44.4c24.4,0.1,44.3-19.6,44.4-43.9c0,0,0-0.1,0-0.1
	C145.3,76.8,125.7,57,101.3,56.9z M101.5,129.6c-15.8,0.2-28.7-12.3-29-28.1c-0.2-15.8,12.3-28.7,28.1-29
	c15.8-0.2,28.7,12.3,29,28.1c0,0.1,0,0.1,0,0.2C129.9,116.5,117.3,129.4,101.5,129.6L101.5,129.6z"/>
</svg>
