<?xml version="1.0" encoding="utf-8"?>
<!-- Generator: Adobe Illustrator 22.0.1, SVG Export Plug-In . SVG Version: 6.00 Build 0)  -->
<svg version="1.1" id="Calque_1" xmlns="http://www.w3.org/2000/svg" xmlns:xlink="http://www.w3.org/1999/xlink" x="0px" y="0px"
	 viewBox="0 0 613.9 581.1" style="enable-background:new 0 0 613.9 581.1;" xml:space="preserve">
<g>
	
		<ellipse transform="matrix(0.9997 -2.251164e-02 2.251164e-02 0.9997 -5.7021 1.9406)" class="st0" cx="83.3" cy="254.2" rx="73.4" ry="94.7"/>
	<g>
		<path class="st0" d="M297.9,245.1c-37.3,1.3-59.7,27.3-99.6,71.6S77.8,430.1,76.9,472.2c-1,42,5,75.8,44.1,91.2s86.7,0.1,86.7,0.1
			s64.8-30.9,104.9-15.8c40,15.1,113.6,54.7,157.9-2.5C545,449,384.4,307.9,372,294.5C331.9,251.2,324.1,244.2,297.9,245.1z"/>
		
			<ellipse transform="matrix(0.9997 -2.251330e-02 2.251330e-02 0.9997 -6.2644 11.9524)" class="st0" cx="527.7" cy="284.2" rx="73.4" ry="94.7"/>
		
			<ellipse transform="matrix(0.9997 -2.251451e-02 2.251451e-02 0.9997 -2.8014 9.0697)" class="st0" cx="401.4" cy="128.9" rx="73.4" ry="94.7"/>
		
			<ellipse transform="matrix(0.9997 -2.251004e-02 2.251004e-02 0.9997 -2.4176 5.0096)" class="st0" cx="221.3" cy="109.9" rx="73.4" ry="94.7"/>
	</g>
</g>
</svg>
